<svg width="105" height="117" viewBox="0 0 105 117" fill="none" xmlns="http://www.w3.org/2000/svg">
<path d="M25.4178 15.3468C30.3113 6.87102 41.1493 3.96698 49.6252 8.86051L100.051 37.9736C102.714 39.5116 103.627 42.9178 102.089 45.5816L85.3807 74.5214C83.8427 77.1852 80.4365 78.0979 77.7727 76.5599L27.3473 47.4469C18.8715 42.5533 15.9675 31.7153 20.861 23.2395L25.4178 15.3468Z" fill="#F8D1A1"/>
<path d="M44.1865 31.4447C42.2291 34.8351 37.8939 35.9967 34.5036 34.0393C31.1132 32.0819 29.9516 27.7467 31.909 24.3563C33.8664 20.966 38.2016 19.8044 41.592 21.7618C44.9823 23.7192 46.1439 28.0544 44.1865 31.4447Z" fill="#D9D9D9"/>
<path d="M49.1252 9.72653L99.5505 38.8396C101.736 40.1014 102.485 42.8961 101.223 45.0816L84.5147 74.0214C83.2528 76.2069 80.4582 76.9557 78.2727 75.6939L27.8473 46.5808C19.8498 41.9635 17.1096 31.737 21.727 23.7395L26.2838 15.8468C30.9012 7.84931 41.1276 5.10915 49.1252 9.72653ZM43.3205 30.9447C41.6392 33.8568 37.9156 34.8545 35.0036 33.1732C32.0915 31.492 31.0938 27.7684 32.7751 24.8563C34.4563 21.9443 38.1799 20.9465 41.092 22.6278C44.004 24.3091 45.0017 28.0327 43.3205 30.9447ZM34.0036 34.9053C37.8722 37.1388 42.819 35.8134 45.0525 31.9447C47.2861 28.0761 45.9606 23.1293 42.092 20.8958C38.2233 18.6622 33.2766 19.9877 31.043 23.8563C28.8094 27.7249 30.1349 32.6717 34.0036 34.9053Z" stroke="#AA7057" stroke-width="2"/>
<path d="M5.10344 52.0586C6.81481 42.4223 16.0139 35.9979 25.6501 37.7093L82.9792 47.8908C86.0078 48.4286 88.0269 51.3198 87.489 54.3483L81.6457 87.2502C81.1079 90.2788 78.2167 92.2979 75.1882 91.76L17.8591 81.5785C8.22284 79.8672 1.79845 70.6681 3.50982 61.0318L5.10344 52.0586Z" fill="#F8D1A1"/>
<path d="M28.2353 60.7949C27.5507 64.6494 23.8711 67.2191 20.0166 66.5346C16.1621 65.85 13.5924 62.1704 14.2769 58.3159C14.9615 54.4614 18.6411 51.8916 22.4956 52.5762C26.3501 53.2607 28.9198 56.9404 28.2353 60.7949Z" fill="#D9D9D9"/>
<path d="M25.4753 38.6939L82.8044 48.8754C85.2891 49.3167 86.9457 51.6887 86.5044 54.1734L80.6611 87.0754C80.2198 89.5601 77.8478 91.2167 75.3631 90.7754L18.034 80.5939C8.94148 78.9791 2.87962 70.2992 4.49441 61.2067L6.08803 52.2334C7.70283 43.141 16.3828 37.0791 25.4753 38.6939ZM27.2507 60.62C26.6627 63.9307 23.5022 66.138 20.1915 65.55C16.8808 64.962 14.6735 61.8015 15.2615 58.4908C15.8495 55.18 19.01 52.9728 22.3207 53.5608C25.6315 54.1488 27.8387 57.3093 27.2507 60.62ZM19.8418 67.5192C24.24 68.3003 28.4388 65.368 29.2199 60.9697C30.001 56.5714 27.0687 52.3727 22.6704 51.5916C18.2722 50.8105 14.0734 53.7428 13.2923 58.141C12.5112 62.5393 15.4435 66.738 19.8418 67.5192Z" stroke="#AA7057" stroke-width="2"/>
<path d="M0 89.721C0 79.934 7.93397 72 17.721 72H75.9472C79.0231 72 81.5166 74.4935 81.5166 77.5695V110.986C81.5166 114.062 79.0231 116.556 75.9472 116.556H17.721C7.93397 116.556 0 108.622 0 98.8347V89.721Z" fill="#F8D1A1"/>
<path d="M24.3031 94.2778C24.3031 98.1927 21.1295 101.366 17.2147 101.366C13.2999 101.366 10.1263 98.1927 10.1263 94.2778C10.1263 90.363 13.2999 87.1894 17.2147 87.1894C21.1295 87.1894 24.3031 90.363 24.3031 94.2778Z" fill="#D9D9D9"/>
<path d="M17.721 73H75.9472C78.4708 73 80.5166 75.0458 80.5166 77.5695V110.986C80.5166 113.51 78.4708 115.556 75.9472 115.556H17.721C8.48625 115.556 1 108.069 1 98.8347V89.721C1 80.4863 8.48625 73 17.721 73ZM23.3031 94.2778C23.3031 97.6404 20.5772 100.366 17.2147 100.366C13.8522 100.366 11.1263 97.6404 11.1263 94.2778C11.1263 90.9153 13.8522 88.1894 17.2147 88.1894C20.5772 88.1894 23.3031 90.9153 23.3031 94.2778ZM17.2147 102.366C21.6818 102.366 25.3031 98.7449 25.3031 94.2778C25.3031 89.8107 21.6818 86.1894 17.2147 86.1894C12.7476 86.1894 9.12629 89.8107 9.12629 94.2778C9.12629 98.7449 12.7476 102.366 17.2147 102.366Z" stroke="#AA7057" stroke-width="2"/>
</svg>
