<svg width="192" height="129" viewBox="0 0 192 129" fill="none" xmlns="http://www.w3.org/2000/svg">
<rect x="1.5" y="47.5" width="133" height="80" rx="8.5" fill="#70706F" stroke="black" stroke-width="3"/>
<path d="M33.0273 76.9727L13.457 85.1025V80.8984L27.1533 75.3027L13.457 69.707V65.5029L33.0273 73.6328V76.9727ZM57.5781 90.127H35.7812V87.0361H57.5781V90.127Z" fill="white"/>
<rect x="57.5" y="1.5" width="133" height="80" rx="8.5" fill="#D9D9D9" stroke="black" stroke-width="3"/>
<rect x="64" y="8" width="103" height="12" rx="6" fill="black"/>
<rect x="64" y="30" width="41" height="8" rx="4" fill="black"/>
<rect x="64" y="42" width="41" height="8" rx="4" fill="black"/>
<rect x="109" y="30" width="23" height="8" rx="4" fill="#44BC4F"/>
<rect x="154" y="42" width="29" height="8" rx="4" fill="#44BC4F"/>
<rect x="109" y="54" width="15" height="8" rx="4" fill="#44BC4F"/>
<rect x="136" y="30" width="41" height="8" rx="4" fill="black"/>
<rect x="109" y="42" width="41" height="8" rx="4" fill="black"/>
<rect x="64" y="66" width="64" height="8" rx="4" fill="black"/>
<rect x="128" y="54" width="17" height="8" rx="4" fill="black"/>
<rect x="150" y="54" width="17" height="8" rx="4" fill="black"/>
<rect x="64" y="54" width="41" height="8" rx="4" fill="black"/>
</svg>
