<svg width="200" height="200" viewBox="0 0 200 200" fill="none" xmlns="http://www.w3.org/2000/svg">
<path d="M187.512 144.291L187.929 145.273L188.959 145.555L196.688 147.671C196.756 147.696 196.817 147.741 196.861 147.798C196.908 147.862 196.916 147.913 196.916 147.934V155.384C196.916 155.405 196.908 155.456 196.861 155.519C196.817 155.577 196.756 155.622 196.688 155.647L188.959 157.762L187.881 158.057L187.483 159.1C186.475 161.736 185.994 162.869 184.945 165.343L184.811 165.658L184.385 166.662L184.924 167.609L188.936 174.65L188.963 174.697L188.986 174.734C188.987 174.739 188.987 174.749 188.985 174.765C188.979 174.808 188.954 174.878 188.883 174.95L183.643 180.189L183.602 180.23L183.563 180.273C183.56 180.277 183.552 180.287 183.52 180.292C183.485 180.296 183.428 180.292 183.363 180.254L183.353 180.249L183.344 180.242L176.303 176.231L175.398 175.715L174.426 176.087C171.716 177.123 170.523 177.629 168.039 178.684L167.721 178.819L166.737 179.235L166.456 180.265L164.328 188.043L164.315 188.086L164.306 188.129C164.305 188.131 164.302 188.145 164.274 188.167C164.241 188.191 164.177 188.223 164.078 188.223H156.627C156.606 188.223 156.555 188.215 156.493 188.167C156.434 188.123 156.389 188.063 156.364 187.995L154.248 180.265L153.954 179.188L152.911 178.789C150.276 177.782 149.143 177.3 146.67 176.251L146.352 176.117L145.349 175.691L144.402 176.231L137.361 180.242L137.315 180.269L137.278 180.293C137.272 180.293 137.263 180.293 137.247 180.292C137.203 180.286 137.132 180.26 137.062 180.189L131.822 174.95L131.781 174.908L131.737 174.87C131.735 174.867 131.724 174.858 131.72 174.826C131.715 174.791 131.72 174.735 131.758 174.67L131.763 174.66L131.769 174.65L135.781 167.609L136.296 166.705L135.924 165.732C134.888 163.023 134.382 161.83 133.328 159.345L133.193 159.026L132.776 158.044L131.746 157.762L123.968 155.634L123.926 155.622L123.882 155.612C123.879 155.612 123.866 155.609 123.844 155.581C123.82 155.548 123.789 155.484 123.789 155.384V147.934C123.789 147.913 123.797 147.862 123.844 147.798C123.888 147.741 123.949 147.696 124.017 147.671L131.746 145.555L132.824 145.261L133.222 144.218C134.23 141.582 134.711 140.449 135.76 137.975C135.804 137.872 135.848 137.767 135.894 137.659L136.32 136.656L135.781 135.708L131.769 128.668L131.742 128.621L131.719 128.584C131.718 128.579 131.718 128.568 131.72 128.553C131.726 128.509 131.751 128.439 131.822 128.368L137.062 123.129L137.103 123.087L137.141 123.044H137.142C137.145 123.041 137.153 123.031 137.185 123.026C137.22 123.021 137.277 123.026 137.342 123.064L137.352 123.07L137.361 123.075L144.402 127.087L145.307 127.603L146.279 127.231C148.989 126.195 150.182 125.688 152.666 124.634C152.77 124.59 152.876 124.545 152.984 124.499L153.967 124.082L154.248 123.053L156.377 115.275L156.389 115.232L156.399 115.189C156.4 115.185 156.403 115.172 156.431 115.151C156.463 115.126 156.528 115.095 156.627 115.095H164.078C164.099 115.095 164.15 115.103 164.212 115.151C164.271 115.195 164.315 115.255 164.341 115.323L166.456 123.053L166.751 124.13L167.794 124.529C170.429 125.537 171.563 126.018 174.036 127.067L174.352 127.201L175.356 127.626L176.303 127.087L183.344 123.075L183.39 123.049L183.427 123.026C183.433 123.025 183.442 123.025 183.458 123.026C183.502 123.033 183.573 123.057 183.643 123.129L188.883 128.368L188.924 128.409L188.967 128.448V128.449C188.971 128.451 188.981 128.46 188.985 128.492C188.989 128.527 188.985 128.583 188.947 128.649L188.942 128.658L188.936 128.668L184.924 135.708L184.409 136.613L184.781 137.586C185.817 140.295 186.322 141.488 187.377 143.973L187.512 144.291ZM131.72 128.589C131.72 128.589 131.719 128.589 131.719 128.587C131.72 128.589 131.72 128.589 131.72 128.589ZM183.422 123.026C183.422 123.026 183.423 123.026 183.425 123.026C183.423 123.026 183.423 123.026 183.422 123.026ZM140.834 151.7C140.834 162.413 149.516 171.096 160.23 171.096C170.944 171.096 179.626 162.413 179.626 151.7C179.626 140.986 170.944 132.304 160.23 132.304C149.516 132.304 140.834 140.986 140.834 151.7Z" fill="url(#paint0_linear_1288_45)"/>
<path d="M137.283 180.292C137.283 180.292 137.282 180.292 137.28 180.293M187.512 144.291L187.929 145.273L188.959 145.555L196.688 147.671C196.756 147.696 196.817 147.741 196.861 147.798C196.908 147.862 196.916 147.913 196.916 147.934V155.384C196.916 155.405 196.908 155.456 196.861 155.519C196.817 155.577 196.756 155.622 196.688 155.647L188.959 157.762L187.881 158.057L187.483 159.1C186.475 161.736 185.994 162.869 184.945 165.343L184.811 165.658L184.385 166.662L184.924 167.609L188.936 174.65L188.963 174.697L188.986 174.734C188.987 174.739 188.987 174.749 188.985 174.765C188.979 174.808 188.954 174.878 188.883 174.95L183.643 180.189L183.602 180.23L183.563 180.273C183.56 180.277 183.552 180.287 183.52 180.292C183.485 180.296 183.428 180.292 183.363 180.254L183.353 180.249L183.344 180.242L176.303 176.231L175.398 175.715L174.426 176.087C171.716 177.123 170.523 177.629 168.039 178.684L167.721 178.819L166.737 179.235L166.456 180.265L164.328 188.043L164.315 188.086L164.306 188.129C164.305 188.131 164.302 188.145 164.274 188.167C164.241 188.191 164.177 188.223 164.078 188.223H156.627C156.606 188.223 156.555 188.215 156.493 188.167C156.434 188.123 156.389 188.063 156.364 187.995L154.248 180.265L153.954 179.188L152.911 178.789C150.276 177.782 149.143 177.3 146.67 176.251L146.352 176.117L145.349 175.691L144.402 176.231L137.361 180.242L137.315 180.269L137.278 180.293C137.272 180.293 137.263 180.293 137.247 180.292C137.203 180.286 137.132 180.26 137.062 180.189L131.822 174.95L131.781 174.908L131.737 174.87C131.735 174.867 131.724 174.858 131.72 174.826C131.715 174.791 131.72 174.735 131.758 174.67L131.763 174.66L131.769 174.65L135.781 167.609L136.296 166.705L135.924 165.732C134.888 163.023 134.382 161.83 133.328 159.345L133.193 159.026L132.776 158.044L131.746 157.762L123.968 155.634L123.926 155.622L123.882 155.612C123.879 155.612 123.866 155.609 123.844 155.581C123.82 155.548 123.789 155.484 123.789 155.384V147.934C123.789 147.913 123.797 147.862 123.844 147.798C123.888 147.741 123.949 147.696 124.017 147.671L131.746 145.555L132.824 145.261L133.222 144.218C134.23 141.582 134.711 140.449 135.76 137.975C135.804 137.872 135.848 137.767 135.894 137.659L136.32 136.656L135.781 135.708L131.769 128.668L131.742 128.621L131.719 128.584C131.718 128.579 131.718 128.568 131.72 128.553C131.726 128.509 131.751 128.439 131.822 128.368L137.062 123.129L137.103 123.087L137.141 123.044H137.142C137.145 123.041 137.153 123.031 137.185 123.026C137.22 123.021 137.277 123.026 137.342 123.064L137.352 123.07L137.361 123.075L144.402 127.087L145.307 127.603L146.279 127.231C148.989 126.195 150.182 125.688 152.666 124.634C152.77 124.59 152.876 124.545 152.984 124.499L153.967 124.082L154.248 123.053L156.377 115.275L156.389 115.232L156.399 115.189C156.4 115.185 156.403 115.172 156.431 115.151C156.463 115.126 156.528 115.095 156.627 115.095H164.078C164.099 115.095 164.15 115.103 164.212 115.151C164.271 115.195 164.315 115.255 164.341 115.323L166.456 123.053L166.751 124.13L167.794 124.529C170.429 125.537 171.563 126.018 174.036 127.067L174.352 127.201L175.356 127.626L176.303 127.087L183.344 123.075L183.39 123.049L183.427 123.026C183.433 123.025 183.442 123.025 183.458 123.026C183.502 123.033 183.573 123.057 183.643 123.129L188.883 128.368L188.924 128.409L188.967 128.448V128.449C188.971 128.451 188.981 128.46 188.985 128.492C188.989 128.527 188.985 128.583 188.947 128.649L188.942 128.658L188.936 128.668L184.924 135.708L184.409 136.613L184.781 137.586C185.817 140.295 186.322 141.488 187.377 143.973L187.512 144.291ZM131.72 128.589C131.72 128.589 131.719 128.589 131.719 128.587C131.72 128.589 131.72 128.589 131.72 128.589ZM183.422 123.026C183.422 123.026 183.423 123.026 183.425 123.026C183.423 123.026 183.423 123.026 183.422 123.026ZM140.834 151.7C140.834 162.413 149.516 171.096 160.23 171.096C170.944 171.096 179.626 162.413 179.626 151.7C179.626 140.986 170.944 132.304 160.23 132.304C149.516 132.304 140.834 140.986 140.834 151.7Z" stroke="black" stroke-width="5"/>
<path d="M111.411 29.7217L159.382 77.6928L62.817 174.258C50.7745 186.3 31.2495 186.3 19.207 174.258L14.8459 169.897C2.80332 157.855 2.80332 138.329 14.8459 126.287L111.411 29.7217Z" fill="url(#paint1_linear_1288_45)" stroke="black" stroke-width="10"/>
<path d="M14.819 126.072L38.0811 102.81L120.525 116.308L62.7902 174.043C50.7476 186.085 31.2227 186.085 19.1801 174.043L14.819 169.682C2.77647 157.64 2.77646 138.114 14.819 126.072Z" fill="url(#paint2_linear_1288_45)" stroke="black" stroke-width="10"/>
<path d="M34.094 139.591C36.6745 142.172 40.8585 142.172 43.439 139.591C46.0195 137.011 46.0195 132.827 43.439 130.247L34.094 139.591ZM19.9971 125.494L34.094 139.591L43.439 130.247L29.3421 116.15L19.9971 125.494Z" fill="black"/>
<path d="M44.6665 117.565C47.2471 120.145 51.431 120.145 54.0115 117.565C56.5921 114.984 56.5921 110.8 54.0115 108.22L44.6665 117.565ZM35.856 108.754L44.6665 117.565L54.0115 108.22L45.201 99.4097L35.856 108.754Z" fill="black"/>
<path d="M79.0279 82.3226C81.6084 84.9031 85.7924 84.9031 88.3726 82.3226C90.9532 79.7421 90.9532 75.5581 88.3726 72.9776L79.0279 82.3226ZM70.2173 73.512L79.0279 82.3226L88.3726 72.9776L79.5623 64.167L70.2173 73.512Z" fill="black"/>
<path d="M66.6931 106.992C69.2736 109.573 73.4576 109.573 76.0381 106.992C78.6187 104.412 78.6187 100.227 76.0381 97.6477L66.6931 106.992ZM52.5962 92.8953L66.6931 106.992L76.0381 97.6477L61.9412 83.5503L52.5962 92.8953Z" fill="black"/>
<path d="M101.935 71.75C104.516 74.3306 108.699 74.3306 111.28 71.75C113.86 69.1695 113.86 64.9856 111.28 62.405L101.935 71.75ZM87.8384 57.6531L101.935 71.75L111.28 62.405L97.1829 48.3081L87.8384 57.6531Z" fill="black"/>
<path d="M175.289 64.5739L126.987 16.2717C123.388 12.6721 117.552 12.6721 113.952 16.2717C110.353 19.8712 110.353 25.7072 113.952 29.3067L162.254 77.6089C165.854 81.2085 171.69 81.2085 175.289 77.6089C178.889 74.0094 178.889 68.1734 175.289 64.5739Z" fill="url(#paint3_linear_1288_45)" stroke="black" stroke-width="10"/>
<defs>
<linearGradient id="paint0_linear_1288_45" x1="160.352" y1="151.315" x2="186.426" y2="177.732" gradientUnits="userSpaceOnUse">
<stop stop-color="#44BC4F"/>
<stop offset="1" stop-color="#1F5624"/>
</linearGradient>
<linearGradient id="paint1_linear_1288_45" x1="128.194" y1="86.9011" x2="140.969" y2="99.6766" gradientUnits="userSpaceOnUse">
<stop stop-color="white"/>
<stop offset="1" stop-color="#999999"/>
</linearGradient>
<linearGradient id="paint2_linear_1288_45" x1="58.1499" y1="154.302" x2="71.8063" y2="168.84" gradientUnits="userSpaceOnUse">
<stop stop-color="#44BC4F"/>
<stop offset="1" stop-color="#1F5624"/>
</linearGradient>
<linearGradient id="paint3_linear_1288_45" x1="166.645" y1="66.6778" x2="182.774" y2="82.5854" gradientUnits="userSpaceOnUse">
<stop stop-color="white"/>
<stop offset="1" stop-color="#737373"/>
</linearGradient>
</defs>
</svg>
