<svg width="118" height="118" viewBox="0 0 118 118" fill="none" xmlns="http://www.w3.org/2000/svg">
<g filter="url(#filter0_dd_1631_51)">
<path d="M88.1686 44.7302L88.6929 45.9661L89.9886 46.3208L99.7129 48.9821C99.7983 49.0143 99.8747 49.0708 99.9302 49.1429C99.99 49.2227 100 49.2869 100 49.3135V58.6865C100 58.7131 99.99 58.7763 99.9302 58.8561C99.8747 58.9292 99.7983 58.9857 99.7129 59.0168L89.9886 61.6781L88.633 62.0495L88.132 63.3618C86.864 66.6772 86.2587 68.1026 84.9386 71.2151L84.7701 71.6119L84.2347 72.8744L84.9131 74.066L89.9598 82.9246L89.9942 82.9833L90.023 83.0299C90.0241 83.0365 90.0241 83.0487 90.0219 83.0687C90.0141 83.123 89.9831 83.2117 89.8933 83.3014L83.3014 89.8933L83.2493 89.9443L83.2006 89.9986C83.1972 90.003 83.1873 90.0163 83.1463 90.0219C83.1019 90.0274 83.031 90.0219 82.949 89.9742L82.9368 89.9676L82.9246 89.9598L74.0671 84.9131L72.9287 84.2647L71.705 84.7324C68.2966 86.0359 66.7958 86.6722 63.67 87.999L63.2698 88.1686L62.0328 88.6929L61.6792 89.9886L59.0012 99.7739L58.9857 99.8271L58.9735 99.8814C58.9724 99.8847 58.9691 99.9025 58.9336 99.9302C58.8926 99.9601 58.8117 100 58.6865 100H49.3135C49.2869 100 49.2227 99.99 49.144 99.9302C49.0708 99.8748 49.0143 99.7983 48.9821 99.7129L46.3208 89.9886L45.9506 88.633L44.6382 88.1309C41.3228 86.864 39.8974 86.2587 36.786 84.9386L36.387 84.7701L35.1245 84.2336L33.9329 84.9131L25.0754 89.9598L25.0167 89.9931L24.9701 90.023C24.9635 90.0241 24.9513 90.0241 24.9313 90.0219C24.8759 90.0141 24.7872 89.982 24.6986 89.8933L18.1067 83.3014L18.0546 83.2493L18.0003 83.2006C17.997 83.1973 17.9837 83.1862 17.9781 83.1452C17.9726 83.1019 17.9781 83.031 18.0258 82.949L18.0324 82.9368L18.0402 82.9246L23.0869 74.066L23.7353 72.9287L23.2676 71.705C21.9641 68.2966 21.3278 66.7958 20.001 63.67L19.8314 63.2687L19.3071 62.0328L18.0114 61.6781L8.22611 59.0001L8.17292 58.9857L8.1175 58.9735C8.11417 58.9724 8.09755 58.9691 8.06984 58.9336C8.03991 58.8926 8 58.8117 8 58.6865V49.3135C8 49.2869 8.00998 49.2227 8.06984 49.1429C8.12526 49.0708 8.20174 49.0143 8.28709 48.9821L18.0114 46.3208L19.367 45.9506L19.868 44.6382C21.136 41.3228 21.7413 39.8963 23.0614 36.7849C23.1168 36.6552 23.1722 36.5233 23.2299 36.387L23.7653 35.1245L23.0869 33.9329L18.0402 25.0754L18.0058 25.0167L17.977 24.9701C17.9759 24.9635 17.9759 24.9502 17.9781 24.9313C17.9859 24.8759 18.0169 24.7872 18.1067 24.6986L24.6986 18.1067L24.7506 18.0546L24.7983 18.0003H24.7994C24.8028 17.9959 24.8138 17.9837 24.8537 17.9781C24.8981 17.9715 24.969 17.9781 25.051 18.0258L25.0632 18.0324L25.0754 18.0391L33.9329 23.0869L35.0713 23.7353L36.295 23.2676C39.7034 21.964 41.2042 21.3267 44.33 20.001C44.4608 19.9456 44.5938 19.8891 44.7302 19.8303L45.9672 19.306L46.3208 18.0114L48.9988 8.22611L49.0143 8.17181L49.0265 8.11749C49.0276 8.11305 49.0309 8.09643 49.0664 8.06983C49.1074 8.03879 49.1883 8 49.3135 8H58.6865C58.7131 8 58.7773 8.00997 58.856 8.06983C58.9292 8.12525 58.9857 8.20062 59.0179 8.28708L61.6792 18.0114L62.0494 19.367L63.3618 19.868C66.6772 21.136 68.1037 21.7412 71.2151 23.0614L71.613 23.2299L72.8755 23.7653L74.0671 23.0869L82.9246 18.0391L82.9833 18.0058L83.0299 17.977C83.0365 17.9759 83.0487 17.9759 83.0687 17.9781C83.1241 17.9859 83.2128 18.0169 83.3014 18.1067L89.8933 24.6986L89.9454 24.7495L89.9997 24.7983V24.7994C90.0041 24.8027 90.0163 24.8138 90.0219 24.8537C90.0274 24.8981 90.0219 24.969 89.9742 25.051L89.9676 25.0632L89.9598 25.0754L84.9131 33.9329L84.2647 35.0713L84.7324 36.295C86.0359 39.7034 86.6722 41.2042 87.999 44.33L88.1686 44.7302ZM17.9781 24.9768C17.9781 24.9768 17.977 24.9757 17.977 24.9734C17.9781 24.9757 17.9781 24.9757 17.9781 24.9768ZM83.0232 17.9781C83.0232 17.9781 83.0243 17.977 83.0265 17.977C83.0243 17.977 83.0243 17.9781 83.0232 17.9781ZM29.4438 54.051C29.4438 67.5295 40.3674 78.4532 53.8459 78.4532C67.3245 78.4532 78.247 67.5295 78.247 54.051C78.247 40.5724 67.3245 29.6499 53.8459 29.6499C40.3674 29.6499 29.4438 40.5724 29.4438 54.051Z" fill="url(#paint0_linear_1631_51)"/>
<path d="M24.9768 90.0219C24.9768 90.0219 24.9757 90.0219 24.9734 90.023M88.1686 44.7302L88.6929 45.9661L89.9886 46.3208L99.7129 48.9821C99.7983 49.0143 99.8747 49.0708 99.9302 49.1429C99.99 49.2227 100 49.2869 100 49.3135V58.6865C100 58.7131 99.99 58.7763 99.9302 58.8561C99.8747 58.9292 99.7983 58.9857 99.7129 59.0168L89.9886 61.6781L88.633 62.0495L88.132 63.3618C86.864 66.6772 86.2587 68.1026 84.9386 71.2151L84.7701 71.6119L84.2347 72.8744L84.9131 74.066L89.9598 82.9246L89.9942 82.9833L90.023 83.0299C90.0241 83.0365 90.0241 83.0487 90.0219 83.0687C90.0141 83.123 89.9831 83.2117 89.8933 83.3014L83.3014 89.8933L83.2493 89.9443L83.2006 89.9986C83.1972 90.003 83.1873 90.0163 83.1463 90.0219C83.1019 90.0274 83.031 90.0219 82.949 89.9742L82.9368 89.9676L82.9246 89.9598L74.0671 84.9131L72.9287 84.2647L71.705 84.7324C68.2966 86.0359 66.7958 86.6722 63.67 87.999L63.2698 88.1686L62.0328 88.6929L61.6792 89.9886L59.0012 99.7739L58.9857 99.8271L58.9735 99.8814C58.9724 99.8847 58.9691 99.9025 58.9336 99.9302C58.8926 99.9601 58.8117 100 58.6865 100H49.3135C49.2869 100 49.2227 99.99 49.144 99.9302C49.0708 99.8748 49.0143 99.7983 48.9821 99.7129L46.3208 89.9886L45.9506 88.633L44.6382 88.1309C41.3228 86.864 39.8974 86.2587 36.786 84.9386L36.387 84.7701L35.1245 84.2336L33.9329 84.9131L25.0754 89.9598L25.0167 89.9931L24.9701 90.023C24.9635 90.0241 24.9513 90.0241 24.9313 90.0219C24.8759 90.0141 24.7872 89.982 24.6986 89.8933L18.1067 83.3014L18.0546 83.2493L18.0003 83.2006C17.997 83.1973 17.9837 83.1862 17.9781 83.1452C17.9726 83.1019 17.9781 83.031 18.0258 82.949L18.0324 82.9368L18.0402 82.9246L23.0869 74.066L23.7353 72.9287L23.2676 71.705C21.9641 68.2966 21.3278 66.7958 20.001 63.67L19.8314 63.2687L19.3071 62.0328L18.0114 61.6781L8.22611 59.0001L8.17292 58.9857L8.1175 58.9735C8.11417 58.9724 8.09755 58.9691 8.06984 58.9336C8.03991 58.8926 8 58.8117 8 58.6865V49.3135C8 49.2869 8.00998 49.2227 8.06984 49.1429C8.12526 49.0708 8.20174 49.0143 8.28709 48.9821L18.0114 46.3208L19.367 45.9506L19.868 44.6382C21.136 41.3228 21.7413 39.8963 23.0614 36.7849C23.1168 36.6552 23.1722 36.5233 23.2299 36.387L23.7653 35.1245L23.0869 33.9329L18.0402 25.0754L18.0058 25.0167L17.977 24.9701C17.9759 24.9635 17.9759 24.9502 17.9781 24.9313C17.9859 24.8759 18.0169 24.7872 18.1067 24.6986L24.6986 18.1067L24.7506 18.0546L24.7983 18.0003H24.7994C24.8028 17.9959 24.8138 17.9837 24.8537 17.9781C24.8981 17.9715 24.969 17.9781 25.051 18.0258L25.0632 18.0324L25.0754 18.0391L33.9329 23.0869L35.0713 23.7353L36.295 23.2676C39.7034 21.964 41.2042 21.3267 44.33 20.001C44.4608 19.9456 44.5938 19.8891 44.7302 19.8303L45.9672 19.306L46.3208 18.0114L48.9988 8.22611L49.0143 8.17181L49.0265 8.11749C49.0276 8.11305 49.0309 8.09643 49.0664 8.06983C49.1074 8.03879 49.1883 8 49.3135 8H58.6865C58.7131 8 58.7773 8.00997 58.856 8.06983C58.9292 8.12525 58.9857 8.20062 59.0179 8.28708L61.6792 18.0114L62.0494 19.367L63.3618 19.868C66.6772 21.136 68.1037 21.7412 71.2151 23.0614L71.613 23.2299L72.8755 23.7653L74.0671 23.0869L82.9246 18.0391L82.9833 18.0058L83.0299 17.977C83.0365 17.9759 83.0487 17.9759 83.0687 17.9781C83.1241 17.9859 83.2128 18.0169 83.3014 18.1067L89.8933 24.6986L89.9454 24.7495L89.9997 24.7983V24.7994C90.0041 24.8027 90.0163 24.8138 90.0219 24.8537C90.0274 24.8981 90.0219 24.969 89.9742 25.051L89.9676 25.0632L89.9598 25.0754L84.9131 33.9329L84.2647 35.0713L84.7324 36.295C86.0359 39.7034 86.6722 41.2042 87.999 44.33L88.1686 44.7302ZM17.9781 24.9768C17.9781 24.9768 17.977 24.9757 17.977 24.9734C17.9781 24.9757 17.9781 24.9757 17.9781 24.9768ZM83.0232 17.9781C83.0232 17.9781 83.0243 17.977 83.0265 17.977C83.0243 17.977 83.0243 17.9781 83.0232 17.9781ZM29.4438 54.051C29.4438 67.5295 40.3674 78.4532 53.8459 78.4532C67.3245 78.4532 78.247 67.5295 78.247 54.051C78.247 40.5724 67.3245 29.6499 53.8459 29.6499C40.3674 29.6499 29.4438 40.5724 29.4438 54.051Z" stroke="black" stroke-width="5"/>
</g>
<defs>
<filter id="filter0_dd_1631_51" x="0.5" y="0.5" width="117" height="117" filterUnits="userSpaceOnUse" color-interpolation-filters="sRGB">
<feFlood flood-opacity="0" result="BackgroundImageFix"/>
<feColorMatrix in="SourceAlpha" type="matrix" values="0 0 0 0 0 0 0 0 0 0 0 0 0 0 0 0 0 0 127 0" result="hardAlpha"/>
<feOffset dx="5" dy="5"/>
<feGaussianBlur stdDeviation="5"/>
<feComposite in2="hardAlpha" operator="out"/>
<feColorMatrix type="matrix" values="0 0 0 0 0.85098 0 0 0 0 0.85098 0 0 0 0 0.85098 0 0 0 1 0"/>
<feBlend mode="normal" in2="BackgroundImageFix" result="effect1_dropShadow_1631_51"/>
<feColorMatrix in="SourceAlpha" type="matrix" values="0 0 0 0 0 0 0 0 0 0 0 0 0 0 0 0 0 0 127 0" result="hardAlpha"/>
<feOffset dy="4"/>
<feGaussianBlur stdDeviation="2"/>
<feComposite in2="hardAlpha" operator="out"/>
<feColorMatrix type="matrix" values="0 0 0 0 0 0 0 0 0 0 0 0 0 0 0 0 0 0 0.25 0"/>
<feBlend mode="normal" in2="effect1_dropShadow_1631_51" result="effect2_dropShadow_1631_51"/>
<feBlend mode="normal" in="SourceGraphic" in2="effect2_dropShadow_1631_51" result="shape"/>
</filter>
<linearGradient id="paint0_linear_1631_51" x1="54" y1="53.5677" x2="86.8019" y2="86.8019" gradientUnits="userSpaceOnUse">
<stop stop-color="#44BC4F"/>
<stop offset="1" stop-color="#1F5624"/>
</linearGradient>
</defs>
</svg>
